<?xml version="1.0" standalone="no"?>
<!DOCTYPE svg PUBLIC "-//W3C//DTD SVG 20010904//EN"
 "http://www.w3.org/TR/2001/REC-SVG-20010904/DTD/svg10.dtd">
<svg version="1.0" xmlns="http://www.w3.org/2000/svg"
 width="240.000000pt" height="240.000000pt" viewBox="0 0 240.000000 240.000000"
 preserveAspectRatio="xMidYMid meet">
<metadata>
Created by potrace 1.14, written by Peter Selinger 2001-2017
</metadata>
<g transform="translate(0.000000,240.000000) scale(0.100000,-0.100000)"
fill="#000000" stroke="none">
<path d="M1395 2094 c-55 -30 -147 -80 -205 -111 -58 -31 -120 -65 -139 -76
-34 -18 -57 -19 -144 -1 -36 7 -190 36 -212 40 -20 3 -55 10 -97 19 -107 21
-141 22 -159 4 -23 -23 -24 -66 -5 -157 8 -37 24 -119 35 -182 11 -63 23 -128
26 -145 21 -106 25 -93 -85 -290 -126 -225 -163 -301 -155 -324 10 -34 33 -43
140 -55 55 -7 97 -12 153 -21 20 -3 60 -7 87 -10 28 -2 50 -5 50 -5 0 -1 12
-4 28 -6 15 -2 39 -6 55 -8 15 -2 35 -5 46 -5 19 -1 26 -8 265 -260 125 -131
148 -151 170 -147 14 2 29 5 32 5 6 1 47 81 169 337 l82 172 142 67 c77 37
187 90 244 117 105 51 139 82 128 116 -4 10 -77 86 -163 168 -257 245 -240
226 -248 281 -3 27 -8 65 -10 84 -2 19 -6 50 -10 69 -3 19 -7 51 -10 70 -2 19
-6 53 -9 75 -3 22 -8 57 -10 79 -13 100 -19 122 -33 139 -25 27 -50 20 -158
-39z"/>
<path d="M1672 727 c-34 -34 -62 -66 -62 -71 0 -12 403 -416 415 -416 12 0
135 121 135 133 0 11 -406 417 -417 417 -5 0 -37 -28 -71 -63z"/>
</g>
</svg>
